# xmcd
#
# Track frame offsets:
#	150
#	10040
#	19955
#	31550
#	42207
#	56497
#	64250
#	72495
#	83580
#	96085
#	107360
#	116012
#	127935
#	138592
#
# Disc length: 1986 seconds
#
# Revision: 0
# Processed by: cddbd v1.5.2PL0 Copyright (c) Steve Scherf et al.
# Submitted via: dBpowerAMP V4.0
#
DISCID=ae07c00e
DTITLE=14 great country hits - Before the next teardrop falls
DYEAR=1900
DGENRE=
TTITLE0=Johnny Russel - In a mansion stands my love
TTITLE1=Hank Locklin - We're gonna go fishin'
TTITLE2=Jeannie C. Riley - Before the next teardrop falls
TTITLE3=Jimmy C. Newman - A fallen star
TTITLE4=Ned Miller - One among the many
TTITLE5=Jerry Lee Lewis - Waitin' for a train
TTITLE6=Johnny Cash - Guess things happen that way
TTITLE7=Patsy Cline - Stop the world
TTITLE8=Randy Travis - Dreamin'
TTITLE9=James O'Gwynn - Talk to me oh lonesome heart
TTITLE10=Webb Pierce - It's been so long
TTITLE11=Patti Page - Mockingbird hill
TTITLE12=Charlie Rich - Who will the next fool be
TTITLE13=Bill Justis - Raunchy
EXTD=
EXTT0=
EXTT1=
EXTT2=
EXTT3=
EXTT4=
EXTT5=
EXTT6=
EXTT7=
EXTT8=
EXTT9=
EXTT10=
EXTT11=
EXTT12=
EXTT13=
PLAYORDER=
